<mxfile host="app.diagrams.net" modified="2023-06-07T22:14:20.015Z" agent="Mozilla/5.0 (Windows NT 10.0; Win64; x64) AppleWebKit/537.36 (KHTML, like Gecko) Chrome/114.0.0.0 Safari/537.36" etag="9G-hdKGYfED3OzqF18iG" version="21.3.2" type="github" pages="2">
  <diagram name="Page-1" id="n6bE-2KFqvbb0c7eEZ2Q">
    <mxGraphModel dx="1130" dy="1348" grid="0" gridSize="10" guides="1" tooltips="1" connect="1" arrows="1" fold="1" page="0" pageScale="1" pageWidth="850" pageHeight="1100" math="0" shadow="0">
      <root>
        <mxCell id="0" />
        <mxCell id="1" parent="0" />
        <mxCell id="K6B3DpTYOLmISBEIrrLt-1" value="Registration and Authorization&amp;nbsp;" style="rounded=1;whiteSpace=wrap;html=1;fontSize=16;" vertex="1" parent="1">
          <mxGeometry x="-32" y="-3" width="120" height="60" as="geometry" />
        </mxCell>
        <mxCell id="K6B3DpTYOLmISBEIrrLt-4" value="Register through Email and tab_num" style="rounded=0;whiteSpace=wrap;html=1;fontSize=16;" vertex="1" parent="1">
          <mxGeometry x="-35" y="148" width="120" height="60" as="geometry" />
        </mxCell>
        <mxCell id="K6B3DpTYOLmISBEIrrLt-5" value="Authorization as Student/Tutor&lt;br&gt;from existing data" style="rounded=0;whiteSpace=wrap;html=1;fontSize=16;" vertex="1" parent="1">
          <mxGeometry x="-32" y="244" width="125" height="81" as="geometry" />
        </mxCell>
        <mxCell id="K6B3DpTYOLmISBEIrrLt-6" value="Searching criterias and filters&amp;nbsp;" style="rounded=1;whiteSpace=wrap;html=1;fontSize=16;" vertex="1" parent="1">
          <mxGeometry x="172" y="-8" width="120" height="60" as="geometry" />
        </mxCell>
        <mxCell id="K6B3DpTYOLmISBEIrrLt-7" value="Search by university, subject, work name" style="rounded=0;whiteSpace=wrap;html=1;fontSize=16;" vertex="1" parent="1">
          <mxGeometry x="172" y="145" width="132" height="82" as="geometry" />
        </mxCell>
        <mxCell id="K6B3DpTYOLmISBEIrrLt-8" value="Filter with : price, Activity or Rating&amp;nbsp;" style="rounded=0;whiteSpace=wrap;html=1;fontSize=16;" vertex="1" parent="1">
          <mxGeometry x="174" y="258" width="134" height="67" as="geometry" />
        </mxCell>
        <mxCell id="K6B3DpTYOLmISBEIrrLt-9" value="Private Chat" style="rounded=1;whiteSpace=wrap;html=1;fontSize=16;" vertex="1" parent="1">
          <mxGeometry x="588.75" y="-8" width="120" height="60" as="geometry" />
        </mxCell>
        <mxCell id="K6B3DpTYOLmISBEIrrLt-10" value="Encrypted from student to Teacher&amp;nbsp;" style="rounded=0;whiteSpace=wrap;html=1;fontSize=16;" vertex="1" parent="1">
          <mxGeometry x="592.25" y="134" width="120" height="60" as="geometry" />
        </mxCell>
        <mxCell id="K6B3DpTYOLmISBEIrrLt-11" value="Display of Tutors&#39; info." style="rounded=1;whiteSpace=wrap;html=1;fontSize=16;" vertex="1" parent="1">
          <mxGeometry x="380" y="-8" width="120" height="60" as="geometry" />
        </mxCell>
        <mxCell id="K6B3DpTYOLmISBEIrrLt-12" value="Displays : photo, name university, subject and rate&amp;nbsp;" style="rounded=0;whiteSpace=wrap;html=1;fontSize=16;" vertex="1" parent="1">
          <mxGeometry x="376.5" y="134" width="127" height="71" as="geometry" />
        </mxCell>
        <mxCell id="K6B3DpTYOLmISBEIrrLt-13" value="Provides a vision of best tutors" style="rounded=0;whiteSpace=wrap;html=1;fontSize=16;" vertex="1" parent="1">
          <mxGeometry x="380" y="254.5" width="123.5" height="63.5" as="geometry" />
        </mxCell>
        <mxCell id="K6B3DpTYOLmISBEIrrLt-14" value="Possible to agree on further details" style="rounded=0;whiteSpace=wrap;html=1;fontSize=16;" vertex="1" parent="1">
          <mxGeometry x="592.25" y="254.5" width="120" height="60" as="geometry" />
        </mxCell>
        <mxCell id="K6B3DpTYOLmISBEIrrLt-15" value="Booking" style="rounded=1;whiteSpace=wrap;html=1;fontSize=16;" vertex="1" parent="1">
          <mxGeometry x="798" y="-8" width="120" height="60" as="geometry" />
        </mxCell>
        <mxCell id="K6B3DpTYOLmISBEIrrLt-16" value="Choose suitable tutor and time&amp;nbsp;" style="rounded=0;whiteSpace=wrap;html=1;fontSize=16;" vertex="1" parent="1">
          <mxGeometry x="789" y="134" width="120" height="60" as="geometry" />
        </mxCell>
        <mxCell id="K6B3DpTYOLmISBEIrrLt-17" value="Where feedback is places&amp;nbsp;" style="rounded=0;whiteSpace=wrap;html=1;fontSize=16;" vertex="1" parent="1">
          <mxGeometry x="789" y="254.5" width="120" height="60" as="geometry" />
        </mxCell>
        <mxCell id="K6B3DpTYOLmISBEIrrLt-18" value="Schedule&amp;nbsp;" style="rounded=1;whiteSpace=wrap;html=1;fontSize=16;" vertex="1" parent="1">
          <mxGeometry x="1007" y="-8" width="120" height="60" as="geometry" />
        </mxCell>
        <mxCell id="K6B3DpTYOLmISBEIrrLt-19" value="Displays&amp;nbsp; time for booked sessions" style="rounded=0;whiteSpace=wrap;html=1;fontSize=16;" vertex="1" parent="1">
          <mxGeometry x="1012" y="130" width="120" height="60" as="geometry" />
        </mxCell>
        <mxCell id="K6B3DpTYOLmISBEIrrLt-20" value="Administration&amp;nbsp;" style="rounded=1;whiteSpace=wrap;html=1;fontSize=16;" vertex="1" parent="1">
          <mxGeometry x="1216" y="-3" width="120" height="60" as="geometry" />
        </mxCell>
        <mxCell id="K6B3DpTYOLmISBEIrrLt-21" value="Add new tutors and new courses" style="rounded=0;whiteSpace=wrap;html=1;fontSize=16;" vertex="1" parent="1">
          <mxGeometry x="1235" y="130" width="120" height="60" as="geometry" />
        </mxCell>
        <mxCell id="K6B3DpTYOLmISBEIrrLt-22" value="Monitor the booking procedures&amp;nbsp;" style="rounded=0;whiteSpace=wrap;html=1;fontSize=16;" vertex="1" parent="1">
          <mxGeometry x="1235" y="254.5" width="120" height="60" as="geometry" />
        </mxCell>
        <mxCell id="K6B3DpTYOLmISBEIrrLt-23" value="Analyze&amp;nbsp;" style="rounded=1;whiteSpace=wrap;html=1;fontSize=16;" vertex="1" parent="1">
          <mxGeometry x="1425" y="-3" width="120" height="60" as="geometry" />
        </mxCell>
        <mxCell id="K6B3DpTYOLmISBEIrrLt-24" value="Collect data for quality control" style="rounded=0;whiteSpace=wrap;html=1;fontSize=16;" vertex="1" parent="1">
          <mxGeometry x="1429" y="130" width="120" height="60" as="geometry" />
        </mxCell>
      </root>
    </mxGraphModel>
  </diagram>
  <diagram id="VYr10n_K_tPE8fRn1xza" name="Page-2">
    <mxGraphModel dx="436" dy="668" grid="0" gridSize="10" guides="1" tooltips="1" connect="1" arrows="1" fold="1" page="0" pageScale="1" pageWidth="850" pageHeight="1100" math="0" shadow="0">
      <root>
        <mxCell id="0" />
        <mxCell id="1" parent="0" />
      </root>
    </mxGraphModel>
  </diagram>
</mxfile>
